<svg id="visual" viewBox="0 0 960 540" width="960" height="540" xmlns="http://www.w3.org/2000/svg" xmlns:xlink="http://www.w3.org/1999/xlink" version="1.1"><g stroke-width="1" stroke-linejoin="bevel"><path d="M452.7 306L358 306L445.7 327Z" fill="#00101c" stroke="#00101c"></path><path d="M452.7 306L387.7 218L358 306Z" fill="#002f81" stroke="#002f81"></path><path d="M358 306L433.7 429L445.7 327Z" fill="#342cd9" stroke="#342cd9"></path><path d="M445.7 327L554.3 369L452.7 306Z" fill="#00234d" stroke="#00234d"></path><path d="M206.3 324L280 359L228.3 200Z" fill="#1c31c4" stroke="#1c31c4"></path><path d="M358 306L280 359L433.7 429Z" fill="#00101c" stroke="#00101c"></path><path d="M387.7 218L228.3 200L358 306Z" fill="#00101c" stroke="#00101c"></path><path d="M504.3 444L554.3 369L445.7 327Z" fill="#001a34" stroke="#001a34"></path><path d="M452.7 306L560.3 245L387.7 218Z" fill="#1c31c4" stroke="#1c31c4"></path><path d="M387.7 218L406.7 96L340 154Z" fill="#002f81" stroke="#002f81"></path><path d="M554.3 369L560.3 245L452.7 306Z" fill="#1c31c4" stroke="#1c31c4"></path><path d="M433.7 429L504.3 444L445.7 327Z" fill="#6600ff" stroke="#6600ff"></path><path d="M228.3 200L280 359L358 306Z" fill="#4c21ed" stroke="#4c21ed"></path><path d="M215.3 477L326 486L280 359Z" fill="#342cd9" stroke="#342cd9"></path><path d="M280 359L326 486L433.7 429Z" fill="#4c21ed" stroke="#4c21ed"></path><path d="M433.7 429L495.3 540L504.3 444Z" fill="#0732ae" stroke="#0732ae"></path><path d="M634 482L604 347L554.3 369Z" fill="#002a67" stroke="#002a67"></path><path d="M554.3 369L604 347L560.3 245Z" fill="#0732ae" stroke="#0732ae"></path><path d="M340 154L228.3 200L387.7 218Z" fill="#002a67" stroke="#002a67"></path><path d="M570.3 151L406.7 96L387.7 218Z" fill="#002f81" stroke="#002f81"></path><path d="M340 154L205.3 101L228.3 200Z" fill="#00101c" stroke="#00101c"></path><path d="M228.3 200L187.3 308L206.3 324Z" fill="#00101c" stroke="#00101c"></path><path d="M206.3 324L215.3 477L280 359Z" fill="#003298" stroke="#003298"></path><path d="M610 185L570.3 151L560.3 245Z" fill="#4c21ed" stroke="#4c21ed"></path><path d="M560.3 245L570.3 151L387.7 218Z" fill="#00101c" stroke="#00101c"></path><path d="M666 238L610 185L560.3 245Z" fill="#002a67" stroke="#002a67"></path><path d="M395.7 0L351 71L406.7 96Z" fill="#1c31c4" stroke="#1c31c4"></path><path d="M406.7 96L351 71L340 154Z" fill="#0732ae" stroke="#0732ae"></path><path d="M326 486L392.7 540L433.7 429Z" fill="#001a34" stroke="#001a34"></path><path d="M209.3 540L354 540L326 486Z" fill="#342cd9" stroke="#342cd9"></path><path d="M326 486L354 540L392.7 540Z" fill="#6600ff" stroke="#6600ff"></path><path d="M392.7 540L495.3 540L433.7 429Z" fill="#0732ae" stroke="#0732ae"></path><path d="M504.3 444L634 482L554.3 369Z" fill="#0732ae" stroke="#0732ae"></path><path d="M114.7 344L215.3 477L206.3 324Z" fill="#002f81" stroke="#002f81"></path><path d="M715.7 320L666 238L604 347Z" fill="#003298" stroke="#003298"></path><path d="M604 347L666 238L560.3 245Z" fill="#002f81" stroke="#002f81"></path><path d="M657 108L558.3 66L570.3 151Z" fill="#002a67" stroke="#002a67"></path><path d="M570.3 151L558.3 66L406.7 96Z" fill="#00234d" stroke="#00234d"></path><path d="M657 108L570.3 151L610 185Z" fill="#0732ae" stroke="#0732ae"></path><path d="M351 71L205.3 101L340 154Z" fill="#001a34" stroke="#001a34"></path><path d="M71.7 250L114.7 344L187.3 308Z" fill="#001a34" stroke="#001a34"></path><path d="M495.3 540L634 482L504.3 444Z" fill="#4c21ed" stroke="#4c21ed"></path><path d="M71.7 250L187.3 308L228.3 200Z" fill="#002a67" stroke="#002a67"></path><path d="M187.3 308L114.7 344L206.3 324Z" fill="#1c31c4" stroke="#1c31c4"></path><path d="M495.3 0L395.7 0L406.7 96Z" fill="#00234d" stroke="#00234d"></path><path d="M351 71L239.3 0L205.3 101Z" fill="#0732ae" stroke="#0732ae"></path><path d="M87.7 453L209.3 540L215.3 477Z" fill="#1c31c4" stroke="#1c31c4"></path><path d="M215.3 477L209.3 540L326 486Z" fill="#342cd9" stroke="#342cd9"></path><path d="M634 482L715.7 320L604 347Z" fill="#0732ae" stroke="#0732ae"></path><path d="M715.7 320L710.7 233L666 238Z" fill="#001a34" stroke="#001a34"></path><path d="M666 238L657 108L610 185Z" fill="#00101c" stroke="#00101c"></path><path d="M558.3 66L495.3 0L406.7 96Z" fill="#1c31c4" stroke="#1c31c4"></path><path d="M395.7 0L313 0L351 71Z" fill="#00101c" stroke="#00101c"></path><path d="M744.7 153L657 108L666 238Z" fill="#00234d" stroke="#00234d"></path><path d="M558.3 66L654 0L495.3 0Z" fill="#00234d" stroke="#00234d"></path><path d="M495.3 540L635 540L634 482Z" fill="#6600ff" stroke="#6600ff"></path><path d="M634 482L771.7 484L715.7 320Z" fill="#6600ff" stroke="#6600ff"></path><path d="M133.7 66L113.7 142L205.3 101Z" fill="#342cd9" stroke="#342cd9"></path><path d="M205.3 101L113.7 142L228.3 200Z" fill="#002a67" stroke="#002a67"></path><path d="M113.7 142L71.7 250L228.3 200Z" fill="#6600ff" stroke="#6600ff"></path><path d="M313 0L239.3 0L351 71Z" fill="#342cd9" stroke="#342cd9"></path><path d="M0 386L87.7 453L114.7 344Z" fill="#001a34" stroke="#001a34"></path><path d="M114.7 344L87.7 453L215.3 477Z" fill="#00101c" stroke="#00101c"></path><path d="M239.3 0L133.7 66L205.3 101Z" fill="#0732ae" stroke="#0732ae"></path><path d="M0 172L0 282L71.7 250Z" fill="#00101c" stroke="#00101c"></path><path d="M710.7 233L744.7 153L666 238Z" fill="#001a34" stroke="#001a34"></path><path d="M657 108L654 0L558.3 66Z" fill="#0732ae" stroke="#0732ae"></path><path d="M836.3 274L744.7 153L710.7 233Z" fill="#0732ae" stroke="#0732ae"></path><path d="M709.7 0L654 0L657 108Z" fill="#00101c" stroke="#00101c"></path><path d="M635 540L717.7 540L634 482Z" fill="#003298" stroke="#003298"></path><path d="M715.7 320L836.3 274L710.7 233Z" fill="#6600ff" stroke="#6600ff"></path><path d="M0 172L71.7 250L113.7 142Z" fill="#6600ff" stroke="#6600ff"></path><path d="M71.7 250L0 282L114.7 344Z" fill="#00101c" stroke="#00101c"></path><path d="M0 540L75.7 540L87.7 453Z" fill="#0732ae" stroke="#0732ae"></path><path d="M87.7 453L75.7 540L209.3 540Z" fill="#1c31c4" stroke="#1c31c4"></path><path d="M717.7 540L771.7 484L634 482Z" fill="#4c21ed" stroke="#4c21ed"></path><path d="M0 282L0 386L114.7 344Z" fill="#4c21ed" stroke="#4c21ed"></path><path d="M771.7 484L816.3 369L715.7 320Z" fill="#002f81" stroke="#002f81"></path><path d="M0 386L0 431L87.7 453Z" fill="#003298" stroke="#003298"></path><path d="M0 63L0 172L113.7 142Z" fill="#00234d" stroke="#00234d"></path><path d="M777.7 85L657 108L744.7 153Z" fill="#002f81" stroke="#002f81"></path><path d="M777.7 85L709.7 0L657 108Z" fill="#00234d" stroke="#00234d"></path><path d="M876.3 179L777.7 85L744.7 153Z" fill="#002a67" stroke="#002a67"></path><path d="M816.3 369L836.3 274L715.7 320Z" fill="#342cd9" stroke="#342cd9"></path><path d="M239.3 0L79.7 0L133.7 66Z" fill="#00101c" stroke="#00101c"></path><path d="M133.7 66L0 63L113.7 142Z" fill="#4c21ed" stroke="#4c21ed"></path><path d="M854.3 540L842.3 428L771.7 484Z" fill="#002f81" stroke="#002f81"></path><path d="M771.7 484L842.3 428L816.3 369Z" fill="#003298" stroke="#003298"></path><path d="M816.3 369L960 292L836.3 274Z" fill="#00101c" stroke="#00101c"></path><path d="M0 431L0 540L87.7 453Z" fill="#0732ae" stroke="#0732ae"></path><path d="M79.7 0L0 63L133.7 66Z" fill="#002f81" stroke="#002f81"></path><path d="M960 212L876.3 179L836.3 274Z" fill="#0732ae" stroke="#0732ae"></path><path d="M836.3 274L876.3 179L744.7 153Z" fill="#00234d" stroke="#00234d"></path><path d="M777.7 85L875.3 0L709.7 0Z" fill="#342cd9" stroke="#342cd9"></path><path d="M876.3 179L838.3 77L777.7 85Z" fill="#342cd9" stroke="#342cd9"></path><path d="M79.7 0L0 0L0 63Z" fill="#342cd9" stroke="#342cd9"></path><path d="M717.7 540L854.3 540L771.7 484Z" fill="#002a67" stroke="#002a67"></path><path d="M960 391L960 292L816.3 369Z" fill="#001a34" stroke="#001a34"></path><path d="M960 391L816.3 369L842.3 428Z" fill="#00101c" stroke="#00101c"></path><path d="M960 52L875.3 0L838.3 77Z" fill="#0732ae" stroke="#0732ae"></path><path d="M960 52L838.3 77L876.3 179Z" fill="#0732ae" stroke="#0732ae"></path><path d="M838.3 77L875.3 0L777.7 85Z" fill="#00101c" stroke="#00101c"></path><path d="M960 487L960 391L842.3 428Z" fill="#00234d" stroke="#00234d"></path><path d="M960 292L960 212L836.3 274Z" fill="#6600ff" stroke="#6600ff"></path><path d="M854.3 540L960 487L842.3 428Z" fill="#0732ae" stroke="#0732ae"></path><path d="M854.3 540L960 540L960 487Z" fill="#342cd9" stroke="#342cd9"></path><path d="M960 212L960 52L876.3 179Z" fill="#4c21ed" stroke="#4c21ed"></path><path d="M960 52L960 0L875.3 0Z" fill="#003298" stroke="#003298"></path></g></svg>