<svg id="visual" viewBox="0 0 900 600" width="900" height="600" xmlns="http://www.w3.org/2000/svg" xmlns:xlink="http://www.w3.org/1999/xlink" version="1.1"><rect x="0" y="0" width="900" height="600" fill="#6600FF"></rect><defs><linearGradient id="grad1_0" x1="33.3%" y1="0%" x2="100%" y2="100%"><stop offset="20%" stop-color="#715df2" stop-opacity="1"></stop><stop offset="80%" stop-color="#715df2" stop-opacity="1"></stop></linearGradient></defs><defs><linearGradient id="grad1_1" x1="33.3%" y1="0%" x2="100%" y2="100%"><stop offset="20%" stop-color="#715df2" stop-opacity="1"></stop><stop offset="80%" stop-color="#6b4bf8" stop-opacity="1"></stop></linearGradient></defs><defs><linearGradient id="grad1_2" x1="33.3%" y1="0%" x2="100%" y2="100%"><stop offset="20%" stop-color="#6733fc" stop-opacity="1"></stop><stop offset="80%" stop-color="#6b4bf8" stop-opacity="1"></stop></linearGradient></defs><defs><linearGradient id="grad1_3" x1="33.3%" y1="0%" x2="100%" y2="100%"><stop offset="20%" stop-color="#6733fc" stop-opacity="1"></stop><stop offset="80%" stop-color="#6600ff" stop-opacity="1"></stop></linearGradient></defs><defs><linearGradient id="grad2_0" x1="0%" y1="0%" x2="66.7%" y2="100%"><stop offset="20%" stop-color="#715df2" stop-opacity="1"></stop><stop offset="80%" stop-color="#715df2" stop-opacity="1"></stop></linearGradient></defs><defs><linearGradient id="grad2_1" x1="0%" y1="0%" x2="66.7%" y2="100%"><stop offset="20%" stop-color="#6b4bf8" stop-opacity="1"></stop><stop offset="80%" stop-color="#715df2" stop-opacity="1"></stop></linearGradient></defs><defs><linearGradient id="grad2_2" x1="0%" y1="0%" x2="66.7%" y2="100%"><stop offset="20%" stop-color="#6b4bf8" stop-opacity="1"></stop><stop offset="80%" stop-color="#6733fc" stop-opacity="1"></stop></linearGradient></defs><defs><linearGradient id="grad2_3" x1="0%" y1="0%" x2="66.7%" y2="100%"><stop offset="20%" stop-color="#6600ff" stop-opacity="1"></stop><stop offset="80%" stop-color="#6733fc" stop-opacity="1"></stop></linearGradient></defs><g transform="translate(900, 0)"><path d="M0 486.7C-48.3 448.5 -96.7 410.3 -163.4 394.5C-230.1 378.7 -315.2 385.2 -344.2 344.2C-373.1 303.2 -345.9 214.5 -360.3 149.2C-374.7 84 -430.7 42 -486.7 0L0 0Z" fill="#6622fe"></path><path d="M0 365.1C-36.3 336.4 -72.5 307.7 -122.6 295.9C-172.6 284 -236.4 288.9 -258.1 258.1C-279.8 227.4 -259.4 160.9 -270.2 111.9C-281 63 -323 31.5 -365.1 0L0 0Z" fill="#6940fa"></path><path d="M0 243.4C-24.2 224.3 -48.3 205.2 -81.7 197.2C-115.1 189.3 -157.6 192.6 -172.1 172.1C-186.6 151.6 -173 107.3 -180.2 74.6C-187.4 42 -215.4 21 -243.4 0L0 0Z" fill="#6e54f5"></path><path d="M0 121.7C-12.1 112.1 -24.2 102.6 -40.9 98.6C-57.5 94.7 -78.8 96.3 -86 86C-93.3 75.8 -86.5 53.6 -90.1 37.3C-93.7 21 -107.7 10.5 -121.7 0L0 0Z" fill="#715df2"></path></g><g transform="translate(0, 600)"><path d="M0 -486.7C54.2 -450.5 108.4 -414.3 160.7 -388C213 -361.8 263.4 -345.5 315.4 -315.4C367.3 -285.2 420.9 -241.1 449.7 -186.3C478.5 -131.4 482.6 -65.7 486.7 0L0 0Z" fill="#6622fe"></path><path d="M0 -365.1C40.7 -337.9 81.3 -310.7 120.5 -291C159.8 -271.3 197.6 -259.1 236.5 -236.5C275.5 -213.9 315.7 -180.9 337.3 -139.7C358.9 -98.5 362 -49.3 365.1 0L0 0Z" fill="#6940fa"></path><path d="M0 -243.4C27.1 -225.3 54.2 -207.1 80.4 -194C106.5 -180.9 131.7 -172.8 157.7 -157.7C183.7 -142.6 210.4 -120.6 224.8 -93.1C239.3 -65.7 241.3 -32.8 243.4 0L0 0Z" fill="#6e54f5"></path><path d="M0 -121.7C13.6 -112.6 27.1 -103.6 40.2 -97C53.3 -90.4 65.9 -86.4 78.8 -78.8C91.8 -71.3 105.2 -60.3 112.4 -46.6C119.6 -32.8 120.7 -16.4 121.7 0L0 0Z" fill="#715df2"></path></g></svg>