<svg id="visual" viewBox="0 0 900 600" width="900" height="600" xmlns="http://www.w3.org/2000/svg" xmlns:xlink="http://www.w3.org/1999/xlink" version="1.1"><rect x="0" y="0" width="900" height="600" fill="#6600FF"></rect><defs><linearGradient id="grad1_0" x1="33.3%" y1="0%" x2="100%" y2="100%"><stop offset="20%" stop-color="#715df2" stop-opacity="1"></stop><stop offset="80%" stop-color="#715df2" stop-opacity="1"></stop></linearGradient></defs><defs><linearGradient id="grad1_1" x1="33.3%" y1="0%" x2="100%" y2="100%"><stop offset="20%" stop-color="#715df2" stop-opacity="1"></stop><stop offset="80%" stop-color="#6b4bf8" stop-opacity="1"></stop></linearGradient></defs><defs><linearGradient id="grad1_2" x1="33.3%" y1="0%" x2="100%" y2="100%"><stop offset="20%" stop-color="#6733fc" stop-opacity="1"></stop><stop offset="80%" stop-color="#6b4bf8" stop-opacity="1"></stop></linearGradient></defs><defs><linearGradient id="grad1_3" x1="33.3%" y1="0%" x2="100%" y2="100%"><stop offset="20%" stop-color="#6733fc" stop-opacity="1"></stop><stop offset="80%" stop-color="#6600ff" stop-opacity="1"></stop></linearGradient></defs><defs><linearGradient id="grad2_0" x1="0%" y1="0%" x2="66.7%" y2="100%"><stop offset="20%" stop-color="#715df2" stop-opacity="1"></stop><stop offset="80%" stop-color="#715df2" stop-opacity="1"></stop></linearGradient></defs><defs><linearGradient id="grad2_1" x1="0%" y1="0%" x2="66.7%" y2="100%"><stop offset="20%" stop-color="#6b4bf8" stop-opacity="1"></stop><stop offset="80%" stop-color="#715df2" stop-opacity="1"></stop></linearGradient></defs><defs><linearGradient id="grad2_2" x1="0%" y1="0%" x2="66.7%" y2="100%"><stop offset="20%" stop-color="#6b4bf8" stop-opacity="1"></stop><stop offset="80%" stop-color="#6733fc" stop-opacity="1"></stop></linearGradient></defs><defs><linearGradient id="grad2_3" x1="0%" y1="0%" x2="66.7%" y2="100%"><stop offset="20%" stop-color="#6600ff" stop-opacity="1"></stop><stop offset="80%" stop-color="#6733fc" stop-opacity="1"></stop></linearGradient></defs><g transform="translate(900, 0)"><path d="M0 486.7C-67.1 482.9 -134.1 479 -186.3 449.7C-238.4 420.4 -275.6 365.8 -319.6 319.6C-363.6 273.4 -414.5 235.6 -443.5 183.7C-472.5 131.8 -479.6 65.9 -486.7 0L0 0Z" fill="#6622fe"></path><path d="M0 365.1C-50.3 362.1 -100.6 359.2 -139.7 337.3C-178.8 315.3 -206.7 274.4 -239.7 239.7C-272.7 205 -310.9 176.7 -332.6 137.8C-354.3 98.9 -359.7 49.4 -365.1 0L0 0Z" fill="#6940fa"></path><path d="M0 243.4C-33.5 241.4 -67.1 239.5 -93.1 224.8C-119.2 210.2 -137.8 182.9 -159.8 159.8C-181.8 136.7 -207.2 117.8 -221.7 91.8C-236.2 65.9 -239.8 33 -243.4 0L0 0Z" fill="#6e54f5"></path><path d="M0 121.7C-16.8 120.7 -33.5 119.7 -46.6 112.4C-59.6 105.1 -68.9 91.5 -79.9 79.9C-90.9 68.3 -103.6 58.9 -110.9 45.9C-118.1 33 -119.9 16.5 -121.7 0L0 0Z" fill="#715df2"></path></g><g transform="translate(0, 600)"><path d="M0 -486.7C47.5 -444.9 94.9 -403 160.3 -387.1C225.8 -371.2 309.2 -381.2 344.2 -344.2C379.2 -307.2 365.9 -223.2 381.6 -158C397.3 -92.9 442 -46.4 486.7 0L0 0Z" fill="#6622fe"></path><path d="M0 -365.1C35.6 -333.7 71.2 -302.3 120.3 -290.3C169.3 -278.4 231.9 -285.9 258.1 -258.1C284.4 -230.4 274.4 -167.4 286.2 -118.5C297.9 -69.6 331.5 -34.8 365.1 0L0 0Z" fill="#6940fa"></path><path d="M0 -243.4C23.7 -222.4 47.5 -201.5 80.2 -193.6C112.9 -185.6 154.6 -190.6 172.1 -172.1C189.6 -153.6 182.9 -111.6 190.8 -79C198.6 -46.4 221 -23.2 243.4 0L0 0Z" fill="#6e54f5"></path><path d="M0 -121.7C11.9 -111.2 23.7 -100.8 40.1 -96.8C56.4 -92.8 77.3 -95.3 86 -86C94.8 -76.8 91.5 -55.8 95.4 -39.5C99.3 -23.2 110.5 -11.6 121.7 0L0 0Z" fill="#715df2"></path></g></svg>